<?xml version="1.0" encoding="utf-8"?>
<!-- Generator: Adobe Illustrator 16.0.0, SVG Export Plug-In . SVG Version: 6.00 Build 0)  -->
<!DOCTYPE svg PUBLIC "-//W3C//DTD SVG 1.1//EN" "http://www.w3.org/Graphics/SVG/1.1/DTD/svg11.dtd">
<svg version="1.1" id="Layer_1" xmlns="http://www.w3.org/2000/svg" xmlns:xlink="http://www.w3.org/1999/xlink" x="0px" y="0px"
	 width="283.5px" height="283.5px" viewBox="0 0 283.5 283.5" style="enable-background:new 0 0 283.5 283.5;" xml:space="preserve"
	>
<style type="text/css">
<![CDATA[
	.st0{fill:#2188A3;}
	.st1{fill:#25A2CE;}
	.st2{fill:#00AEEF;}
]]>
</style>
<g>
	<path class="st2" d="M262.4,247.3c0,3.3-2.7,6-6.1,6H27.1c-3.4,0-6.1-2.7-6.1-6V85.1c0-3.3,2.7-6,6.1-6h229.3c3.4,0,6.1,2.7,6.1,6
		V247.3z M195.5,116.3c0-7.7-6.5-11.7-11.7-11.7H59.1c-6.8,0-13.1,8.2-13.1,17.1v89.6c0,3.3,2.8,15.6,14.1,15.6h121.3
		c9.3,0,14.1-6.4,14.1-13.1V116.3z"/>
	<path class="st1" d="M100.9,79c0,0,0.8-6.6,6.4-6.4l28.7,0L73.3,22.7c0,0-3.8-1.6-1.3-5.8c0,0,2.5-2.1,5.2,0.4l63.9,51.3l61.4-49.3
		l3-2.4c0,0,3-2.1,5.2,0.7c0,0,1.4,2.3-0.8,4l-63.6,50.9l29.2,0.2c0,0,5.2,0.8,5.4,6.3H100.9z"/>
	<g>
		<circle class="st0" cx="226.6" cy="118.6" r="14.2"/>
		<circle class="st0" cx="226.6" cy="159.2" r="14.2"/>
		<path class="st0" d="M243.3,199.2c0,1.7-1.5,3-3.3,3h-26.8c-1.8,0-3.3-1.4-3.3-3l0,0c0-1.7,1.5-3,3.3-3H240
			C241.8,196.2,243.3,197.6,243.3,199.2L243.3,199.2z"/>
		<path class="st0" d="M243.3,212.5c0,1.7-1.5,3-3.3,3h-26.8c-1.8,0-3.3-1.4-3.3-3l0,0c0-1.7,1.5-3,3.3-3H240
			C241.8,209.4,243.3,210.8,243.3,212.5L243.3,212.5z"/>
		<path class="st0" d="M243.3,225.8c0,1.7-1.5,3-3.3,3h-26.8c-1.8,0-3.3-1.4-3.3-3l0,0c0-1.7,1.5-3,3.3-3H240
			C241.8,222.8,243.3,224.1,243.3,225.8L243.3,225.8z"/>
	</g>
</g>
</svg>
