<?xml version="1.0" encoding="utf-8"?>
<!-- Generator: Adobe Illustrator 16.0.0, SVG Export Plug-In . SVG Version: 6.00 Build 0)  -->
<!DOCTYPE svg PUBLIC "-//W3C//DTD SVG 1.1//EN" "http://www.w3.org/Graphics/SVG/1.1/DTD/svg11.dtd">
<svg version="1.1" id="Layer_1" xmlns="http://www.w3.org/2000/svg" xmlns:xlink="http://www.w3.org/1999/xlink" x="0px" y="0px"
	 width="283.5px" height="283.5px" viewBox="0 0 283.5 283.5" style="enable-background:new 0 0 283.5 283.5;" xml:space="preserve"
	>
<style type="text/css">
<![CDATA[
	.st0{fill:#AC1E23;}
	.st1{fill:url(#SVGID_1_);}
	.st2{fill:url(#SVGID_2_);}
	.st3{fill:url(#SVGID_3_);}
	.st4{fill:url(#SVGID_4_);}
	.st5{fill:url(#SVGID_5_);}
	.st6{fill:#DE2127;}
]]>
</style>
<g>
	<linearGradient id="SVGID_1_" gradientUnits="userSpaceOnUse" x1="231.0234" y1="92.4761" x2="173.8929" y2="180.0382">
		<stop  offset="2.242480e-002" style="stop-color:#65BFE4"/>
		<stop  offset="0.4824" style="stop-color:#3F80A9"/>
		<stop  offset="0.8234" style="stop-color:#265883"/>
		<stop  offset="1" style="stop-color:#1D4975"/>
	</linearGradient>
	<path class="st1" d="M187.3,14.7c0,0,21.3,56.5-32,119.3l-26.8,26.1v19.2c0,0,11.3,2.1,17.2,50.6c0,0,7.5,42.1,74,24.5
		c0,0-14.4-10.7-26.6-46.9c0,0-9.6-26.1-31.4-30.9l8-5.7c0,0,73-22,62.3-96.6C232.1,74.4,223,34.4,187.3,14.7z"/>
	<linearGradient id="SVGID_2_" gradientUnits="userSpaceOnUse" x1="253.9941" y1="50.8672" x2="136.3857" y2="251.2466">
		<stop  offset="2.242480e-002" style="stop-color:#65BFE4"/>
		<stop  offset="8.855003e-002" style="stop-color:#5CB0D6"/>
		<stop  offset="0.2738" style="stop-color:#458BB3"/>
		<stop  offset="0.4593" style="stop-color:#346E98"/>
		<stop  offset="0.6431" style="stop-color:#275A85"/>
		<stop  offset="0.8243" style="stop-color:#204D79"/>
		<stop  offset="1" style="stop-color:#1D4975"/>
	</linearGradient>
	<path class="st2" d="M146.3,157.9c0,0,56.5-17,54.3-103.3L198,28.5c0,0,28.8,12.8,22.4,74c0,0-15.4,65.5-79.4,66h-10.6l0.9,10.7
		c0,0,8.5,1.5,15.8,40.5c0,0-1.3,42.2,52.5,38.9l22.9-4.3c0,0-16.1-13.4-28.2-50.4c0,0-11.8-25.3-29.9-27.4l8-5.7
		c0,0,69.8-20.4,63.4-93.9c0,0-11.2-40.9-48.5-62.2c0,0,23,72.3-56.9,143v6.2L146.3,157.9z"/>
	<linearGradient id="SVGID_3_" gradientUnits="userSpaceOnUse" x1="186.4004" y1="246.2227" x2="146.8114" y2="161.9589">
		<stop  offset="2.242480e-002" style="stop-color:#255A94"/>
		<stop  offset="0.2796" style="stop-color:#225387"/>
		<stop  offset="0.6557" style="stop-color:#1E4B79"/>
		<stop  offset="1" style="stop-color:#1D4975"/>
	</linearGradient>
	<path class="st3" d="M130.4,168.5c0,0,43.9,9.1,64.3,57.5c0,0,6.8,18.4,15.2,24.8c0,0-43.1,6-52.7-22
		C157.1,228.8,148.4,206.5,130.4,168.5z"/>
	<linearGradient id="SVGID_4_" gradientUnits="userSpaceOnUse" x1="69.9497" y1="83.6274" x2="110.4999" y2="181.8175">
		<stop  offset="0" style="stop-color:#ED353D"/>
		<stop  offset="1" style="stop-color:#B92831"/>
	</linearGradient>
	<path class="st4" d="M51.5,18.3c0,0,60.2,0,77.2,104.9c0,0,4.8,94.3,0,134.2c0,0-85.2-37.8-77.2-149.7c0,0,2.1,36.2,14.9,52.2
		c0,0,0.5-113.5-1.6-131C64.8,29,60.2,22.1,51.5,18.3z"/>
	<linearGradient id="SVGID_5_" gradientUnits="userSpaceOnUse" x1="58.2266" y1="18.2461" x2="112.3055" y2="187.2607">
		<stop  offset="0" style="stop-color:#ED353D"/>
		<stop  offset="0.1937" style="stop-color:#E3323B"/>
		<stop  offset="0.528" style="stop-color:#C72A35"/>
		<stop  offset="0.9604" style="stop-color:#991D2C"/>
		<stop  offset="1" style="stop-color:#951C2B"/>
	</linearGradient>
	<path class="st5" d="M71.2,33.5c0,0,36,50.3,28,130.2c0,0-6.3,60.1,17.7,82.5c0,0-36.8-30.5-51.7-82.7c0,0,1.3-109-0.3-134.5
		c0,0-7.5-8.8-13.3-10.6c0,0,52.4-1,73.9,87.9c0,0,7.6,23.4,5.5,103.3L130,242c0,0-5.5-155.5-39.1-191.2c0,0-16.3-21-25.6-27
		L71.2,33.5z"/>
	<path class="st6" d="M51.9,106.5c0,0,5.9,87.6,76.7,151C128.6,257.5,41.2,228.2,51.9,106.5z"/>
	<path class="st0" d="M51.5,18.3c0,0,73.5-4.9,79.4,140.1L130,242c0,0-7.8-90.6-10.1-104.1C119.9,137.9,110.1,35.4,51.5,18.3z"/>
</g>
</svg>
