<?xml version="1.0" encoding="utf-8"?>
<!-- Generator: Adobe Illustrator 16.0.0, SVG Export Plug-In . SVG Version: 6.00 Build 0)  -->
<!DOCTYPE svg PUBLIC "-//W3C//DTD SVG 1.1//EN" "http://www.w3.org/Graphics/SVG/1.1/DTD/svg11.dtd">
<svg version="1.1" id="Layer_1" xmlns="http://www.w3.org/2000/svg" xmlns:xlink="http://www.w3.org/1999/xlink" x="0px" y="0px"
	 width="283.5px" height="283.5px" viewBox="0 0 283.5 283.5" style="enable-background:new 0 0 283.5 283.5;" xml:space="preserve"
	>
<style type="text/css">
<![CDATA[
	.st0{fill:#25A2CE;stroke:#FFFFFF;stroke-miterlimit:10;}
	.st1{fill:#2188A3;}
	.st2{fill:#2188A3;stroke:#FFFFFF;stroke-miterlimit:10;}
]]>
</style>
<path class="st2" d="M11.2,22.9h31.2c0,0,10,1.5,15.7,13.2c0,0,4.7,1.5,1.2,4.7c0,0-9.4,4.4-15,3.2c0,0-2.5-2,0.6-3.4
	c0,0,1.8-1.2-0.4-2.9c0,0-2.8-2.8-6.1-3l-27.2-0.4C11.2,34.3,0.6,27.8,11.2,22.9z"/>
<path class="st2" d="M61.6,34.5c0,0-3.4-9.9-16.4-14.5H13c0,0-2.2,1-1.8,2.9h31.2c0,0,9,1.2,15.7,13.2c0,0,2.3,0.4,2.5,2.7
	c0,0,1.9,0.5,3.3-2.9C63.9,36,64.9,33.9,61.6,34.5z"/>
<path class="st0" d="M48.1,44.2l12.5,84.7l6.7,37.7c0,0,1.4,19.8,20.1,21.4h154c0,0,6.6-3.6,0.8-9.3l-4.8-0.2l-149.7,0
	c0,0-7.6,1.7-8.7-7.5l-16.3-95l-5.4-34.4C57.3,41.7,50.9,44.1,48.1,44.2z"/>
<path class="st0" d="M250,209.1H79c0,0-16.6-11.1,2.1-22.6c0,0-5-1.5-7.8-5.6c0,0-11.6,9-11.4,18.2c0,0-0.3,15.9,16.3,18.7h53.1
	l118.7,0.5C250,218.3,257.5,213.9,250,209.1z"/>
<path class="st0" d="M260.6,53.3c0,3.6-3,6.4-6.8,6.4H67.4c-3.8,0-6.8-2.9-6.8-6.4l0,0c0-3.6,3-6.4,6.8-6.4h186.4
	C257.6,46.9,260.6,49.8,260.6,53.3L260.6,53.3z"/>
<path class="st0" d="M236.7,242.2c0,10.7-8.6,19.3-19.3,19.3c-10.7,0-19.3-8.6-19.3-19.3c0-10.7,8.7-19.3,19.3-19.3
	C228,222.8,236.7,231.5,236.7,242.2z M217.3,230.5c-6.5,0-11.7,5.2-11.7,11.7c0,6.5,5.2,11.7,11.7,11.7c6.5,0,11.7-5.2,11.7-11.7
	C229,235.7,223.8,230.5,217.3,230.5z"/>
<path class="st0" d="M125.4,242.2c0,10.7-8.7,19.3-19.3,19.3c-10.7,0-19.3-8.6-19.3-19.3c0-10.7,8.7-19.3,19.3-19.3
	C116.8,222.8,125.4,231.5,125.4,242.2z M106.1,230.5c-6.5,0-11.7,5.2-11.7,11.7c0,6.5,5.2,11.7,11.7,11.7s11.7-5.2,11.7-11.7
	C117.8,235.7,112.5,230.5,106.1,230.5z"/>
<path class="st1" d="M258,64.5l-16.4,109.8c0,0-0.2,2.7-4.8,4.3l-149.1,0c0,0-6.9,1-8.1-4.7L62.9,67.2l2.2-3.7c0,0,1.4,1,3.6,1H258z
	 M75.4,72.3l2.1,12.8h20.1l-2.3-15.5H81h-2.7C76.6,69.6,75.4,72.3,75.4,72.3z M78.7,96.1l2.1,12.8h20.1l-2.3-15.5H84.2h-2.7
	C79.8,93.5,78.7,96.1,78.7,96.1z M82.6,124l2.1,14.2h20.1l-2.3-17.2H88.2h-2.7C83.8,121.1,82.6,124,82.6,124z M86.5,149l2.1,17.2
	h20.1l-2.3-20.9H92.1h-2.7C87.7,145.4,86.5,149,86.5,149z M102.5,69.6l2.3,15.5h21.7V69.6H102.5z M104.8,93.5l2.3,15.5h21.7V93.5
	H104.8z M107.6,121.1l2.3,17.2h21.7v-17.2H107.6z M113.2,145.4l1.7,20.9h16.6v-20.9H113.2z M133.6,69.6v15.5h22.8V69.6H133.6z
	 M164.2,69.6v15.5H187V69.6H164.2z M133.7,93.5v15.5h22.8V93.5H133.7z M163.1,93.5v15.5h22.8V93.5H163.1z M136.1,121.9v15.5h20.4
	v-15.5H136.1z M136.9,145.4v20.9h20.4v-20.9H136.9z M163.1,121.9v15.5h20.7v-15.5H163.1z M164.2,145.4v20.9h17.5v-20.9H164.2z
	 M194.4,69.6L193,85.1h21.8l3.1-15.5H194.4z M193,93.5l-1.3,15.5h20.1l2.9-15.5H193z M191,121.1l-1.2,17.2h17.5l2.5-17.2H191z
	 M188.9,145.4l-1.1,21.3h16.6l2.4-21.3H188.9z M224.1,69.6l-1.8,15.5h19.6l2.1-13.5c0,0-0.7-1.9-2.9-1.9H224.1z M220.3,93.5
	l-1.8,15.5h19.6l2.1-13.5c0,0-0.7-1.9-2.9-1.9H220.3z M216.5,121.1l-1.8,17.2h19.6l2.1-15c0,0-0.7-2.1-2.9-2.1H216.5z M214.2,145.4
	l-1.8,20.9H232l2.2-18.3c0,0-0.7-2.5-2.9-2.6H214.2z"/>
<path class="st0" d="M261.9,58c0,3.6-3,6.4-6.8,6.4H68.7c-3.8,0-6.8-2.9-6.8-6.4l0,0c0-3.6,3-6.4,6.8-6.4h186.4
	C258.9,51.6,261.9,54.5,261.9,58L261.9,58z"/>
<path class="st0" d="M91.2,219.9l12.1,26.4c0,0,3.1,2.7,6.9,0c0,0,2.5-8.9,3-25.1v-1.2H91.2z"/>
<path class="st0" d="M203.7,221.2l11.7,25.3c0,0,3,2.6,6.7,0c0,0,2.4-8.5,2.9-24.1v-1.2H203.7z"/>
</svg>
